<svg width="1911" height="900" viewBox="0 0 1911 900" fill="none" xmlns="http://www.w3.org/2000/svg">
<g clip-path="url(#clip0_1_145)">
<path d="M1326.48 631.703C1305.7 654.761 1280.19 660.139 1252.54 653.937C1227.18 648.24 1210.89 631.198 1204.98 605.636C1199.26 580.914 1202.56 557.788 1219.67 537.788C1237.36 517.116 1260.29 511.772 1285.52 517.587C1307.27 522.612 1321.57 537.251 1327.45 559.049C1329.84 567.905 1331.34 577.065 1332.46 586.191C1333.25 592.678 1331.05 596.661 1322.87 596.51C1297.49 596.039 1272.11 596.426 1246.73 596.46C1242.88 596.46 1239.05 596.46 1233.92 596.46C1235.9 610.644 1241.23 620.947 1252.89 626.896C1273.89 637.602 1291.42 629.266 1308.02 615.468C1314.07 620.795 1319.92 625.938 1326.5 631.703H1326.48ZM1233.28 576.09H1299.89C1300.73 555.889 1289.87 543.385 1270.04 541.099C1251.47 538.948 1237.13 552.107 1233.28 576.09Z" fill="#A4292A"/>
<path d="M1170.39 227.391H1073.02C1074.53 240.248 1078.36 250.92 1089.61 256.096C1109.91 265.457 1128.43 261.323 1145.23 245.071C1151.29 250.13 1157.19 255.054 1163.8 260.55C1152.17 276.079 1136.38 282.885 1118.37 285.608C1085.42 290.583 1054.18 272.264 1045.08 240.264C1035.24 205.61 1044.97 169.341 1076.21 153.913C1111.31 136.586 1160.4 150.384 1167.41 199.223C1168.66 207.946 1169.28 216.735 1170.39 227.374V227.391ZM1138.45 207.088C1136.77 180.467 1123.64 171.509 1103.56 171.644C1085.71 171.778 1071.15 189.677 1072.73 207.088H1138.45Z" fill="#A4292A"/>
<path d="M1384.2 653.702H1353.91V519.486H1383.69C1384.03 524.898 1384.33 529.755 1384.73 536.377C1388.05 533.368 1390.33 531.452 1392.45 529.352C1409.54 512.377 1441.68 510.612 1458.89 525.772C1469.19 534.847 1473.78 547.133 1474.13 560.04C1474.97 590.762 1474.4 621.535 1474.4 653.198H1444.42C1444.42 632.14 1444.42 611.165 1444.42 590.191C1444.42 585.182 1444.4 580.174 1444.33 575.166C1444.08 554.444 1433.93 543.234 1415.34 543.082C1397.81 542.948 1384.7 556.376 1384.4 575.502C1384.06 597.686 1384.25 619.871 1384.2 642.055C1384.2 645.568 1384.2 649.08 1384.2 653.719V653.702Z" fill="#A4292A"/>
<path d="M1622.83 653.501H1592.38C1592.38 640.745 1592.38 628.358 1592.38 615.989C1592.38 601.67 1592.34 587.351 1592.29 573.032C1592.23 553.25 1582.83 543.318 1564.06 543.116C1546.69 542.931 1533.52 555.654 1533.31 573.317C1533.05 597.653 1533.16 621.989 1533.06 646.341C1533.06 648.425 1532.63 650.509 1532.32 653.265H1503.01V519.604H1532.31C1532.76 524.411 1533.18 528.898 1533.6 533.217C1534.73 533.452 1535.75 533.906 1535.95 533.671C1550.78 516.209 1569.89 513.302 1591.2 516.881C1607.22 519.57 1622.18 536.931 1622.65 556.763C1623.39 588.577 1622.85 620.426 1622.85 653.484L1622.83 653.501Z" fill="#A4292A"/>
<path d="M1790.91 519.285H1820.05C1820.47 524.478 1820.86 529.268 1821.3 534.579C1822.83 534.041 1824.04 534.007 1824.56 533.368C1839.35 515.486 1858.95 512.008 1879.82 517.268C1899.62 522.259 1909.03 538.78 1910.08 557.301C1911.86 588.964 1910.56 620.812 1910.56 653.198H1880.91C1880.91 635.098 1881.17 617.35 1880.83 599.619C1880.59 587.569 1880.68 575.317 1878.56 563.536C1876.12 549.956 1868.39 544.024 1856.26 543.032C1841.5 541.805 1830.12 547.116 1825.21 558.881C1822.69 564.931 1821.06 571.822 1820.93 578.359C1820.44 603.014 1820.73 627.669 1820.73 653.131H1790.91V519.301V519.285Z" fill="#A4292A"/>
<path d="M1119.64 519.503H1148.15C1148.55 527.604 1148.92 535.251 1149.29 542.881C1160.74 525.167 1175.48 515.587 1197.14 516.125V546.511C1188.96 549.116 1179.93 550.561 1172.35 554.679C1156.13 563.452 1149.39 578.494 1149.16 596.493C1148.91 615.031 1149.11 633.568 1149.11 653.013H1119.66V519.52L1119.64 519.503Z" fill="#A4292A"/>
<path d="M1282.83 282.062H1255.1V100.889H1282.83V282.062Z" fill="#A4292A"/>
<path d="M1317.42 100.553H1345.27V281.508H1317.42V100.553Z" fill="#A4292A"/>
<path d="M1222.83 151.275V281.877H1194.07V151.275H1222.83Z" fill="#A4292A"/>
<path d="M793.861 167.241C806.416 164.182 814.433 157.073 816.736 143.006C812.097 142.165 807.744 141.359 802.92 140.485V108.586H837.14C836.182 123.023 836.485 137.325 834.014 151.14C830.753 169.392 819.341 177.526 798.247 179.257C796.903 175.577 795.491 171.711 793.844 167.241H793.861Z" fill="#A4292A"/>
<path d="M1191.83 100.587H1222.99V129.225H1191.83V100.587Z" fill="#A4292A"/>
<path d="M1660.58 547.738C1658.48 542.108 1655.67 534.595 1652.55 526.192C1679.21 515.436 1705.56 509.856 1733.04 519.301C1750.12 525.167 1762.24 537.805 1763.19 555.502C1764.94 587.771 1763.7 620.224 1763.7 652.996H1735.56C1735.21 648.341 1734.91 644.089 1734.49 638.593C1732.03 640.324 1730.18 641.417 1728.57 642.795C1710.15 658.526 1689.29 659.786 1667.59 651.988C1649.42 645.467 1639.91 630.627 1640.41 612.174C1640.87 595.35 1652.33 579.821 1669.02 573.939C1686.43 567.805 1704.23 568.242 1722.11 571.502C1726.06 572.225 1730 573.099 1733.95 573.905C1736.1 555.872 1725.91 542.646 1706.99 542.36C1692.16 542.141 1677.27 545.654 1660.6 547.721L1660.58 547.738ZM1715.46 589.872C1708.74 588.342 1701.74 588.51 1695.04 590.04C1691.46 590.846 1687.83 591.922 1684.21 593.418C1676.13 596.762 1671.84 603.502 1672.08 612.678C1672.3 621.098 1676.75 626.509 1683.98 630.005C1697.44 636.492 1720.3 633.014 1728.65 621.064C1730.12 618.98 1731.21 615.653 1732.01 612.157C1734.13 603.065 1728.96 593.771 1720.01 591.082C1719.96 591.082 1719.91 591.048 1719.86 591.031C1718.42 590.611 1716.97 590.224 1715.48 589.872H1715.46Z" fill="#A4292A"/>
<path d="M1015.32 108.603V280.734H989.687L985.031 274.768L894.69 159.291V280.734H864.386V108.603H893.513L894.69 110.099L985.031 225.592V108.603H1015.32Z" fill="#A4292A"/>
<path d="M688.712 516.326C658.206 532.091 630.053 549.603 599.732 561.67C535.106 587.384 469.506 584.93 404.83 560.225C400.695 558.645 396.208 550.864 396.426 546.175C397.855 517.032 400.594 487.957 402.947 458.294C415.906 464.26 428.949 470.798 442.378 476.361C528.434 512.041 626.691 468.092 667.584 384.547C704.242 309.658 691.334 208.735 633.969 148.501C547.006 57.1921 394.93 82.2505 341.633 196.652C323.497 235.575 320.993 251.155 322.018 320.532H287.159C281.209 281.81 255.359 272.97 222.013 277.558C219.239 161.728 305.11 18.8063 477.237 1.5293C647.415 -15.546 804.248 110.805 790.297 320.918C797.407 320.918 804.399 320.784 811.374 320.935C861.545 322.061 911.817 321.759 961.853 324.885C1001.28 327.355 1034.53 345.556 1060.62 375.707C1106.82 429.101 1105.04 539.519 1036.97 587.552C1031.69 591.283 1026.81 595.585 1022.29 599.199C1039.86 609.988 1058.21 618.929 1073.88 631.282C1150.15 691.382 1138.1 834.741 1043.22 877.681C1010.33 892.571 976.358 899.781 940.726 899.882C863.411 900.117 786.095 899.882 708.78 899.832C702.847 899.832 696.914 899.832 688.712 899.832V516.31V516.326ZM779.994 809.8C837.392 809.8 893.026 810.018 948.642 809.598C957.87 809.531 967.232 807.312 976.258 805.01C1005.65 797.498 1026.04 775.095 1030.09 746.658C1037.2 696.609 1011.28 659.483 958.694 655.164C902.791 650.576 846.334 652.845 790.129 652.24C786.986 652.206 783.843 653.147 779.994 653.752V809.817V809.8ZM780.431 410.496V565.283C823.24 565.283 864.537 565.804 905.8 564.998C919.868 564.712 934.322 562.594 947.836 558.679C986.04 547.62 1004.6 518.259 1001.32 476.714C998.763 444.462 973.098 417.69 937.465 413.152C916.271 410.446 894.656 410.866 873.21 410.597C842.468 410.211 811.727 410.496 780.414 410.496H780.431Z" fill="#A4292A"/>
<path d="M386.056 408.345C379.77 519.436 373.568 628.862 367.248 740.423C333.868 739.331 305.345 750.456 285.781 779.464C266.234 808.455 268.351 838.505 282.638 870.169C276.436 870.589 271.713 871.16 266.99 871.177C211.777 871.379 156.564 871.597 101.35 871.614C76.8783 871.614 68.1215 862.975 66.4576 838.051C58.1378 713.197 49.8348 588.325 41.4814 463.47C40.2712 445.471 38.9434 427.471 37.5988 408.345H386.039H386.056Z" fill="#A4292A"/>
<path d="M395.636 346.145C400.729 339.708 406.544 333.691 410.78 326.733C418.629 313.826 430.478 311.372 443.454 314.162C448.765 315.305 457.068 320.868 457.068 324.397C457.068 330.364 451.908 341.153 448.211 341.456C428.579 343.103 421.184 359.22 410.461 370.85C402.04 379.993 393.838 384.631 380.812 384.581C258.838 384.043 136.865 384.278 14.9084 384.228C10.6225 384.228 6.31969 383.774 2.28585 383.539C-2.15138 358.934 -1.88246 358.582 19.6818 354.783C22.203 354.329 26.1696 353.523 26.7578 351.909C33.4473 333.506 48.9272 336.884 62.9784 336.817C82.1896 336.733 101.401 336.8 119.503 336.8C121.267 334.397 122.326 333.59 122.478 332.666C128.108 295.608 130.041 293.927 167.505 293.927C186.263 293.927 205.037 293.994 223.794 293.994C260.687 293.994 265.545 298.162 270.284 335.893C300.068 335.893 330.187 335.489 360.29 336.095C371.231 336.313 382.123 338.935 393.048 340.447C393.905 342.347 394.779 344.262 395.636 346.162V346.145ZM244.938 335.826C249.107 319.759 243.745 313.524 228.853 313.944C206.835 314.566 184.784 314.734 162.749 314.498C148.227 314.33 142.714 320.801 145.218 335.826H244.938Z" fill="#A4292A"/>
<path d="M355.046 890.958C317.564 890.79 288.05 862.034 287.983 825.615C287.916 789.464 319.531 757.549 355.314 757.666C393.014 757.784 423.033 788.388 422.932 826.589C422.831 862.723 392.88 891.109 355.046 890.941V890.958ZM355.735 860.942C376.374 860.824 392.678 844.471 392.291 824.304C391.905 804.775 373.752 787.582 354.172 788.22C335.481 788.825 318.522 806.439 318.69 825.043C318.875 845.984 334.439 861.059 355.735 860.942Z" fill="#A4292A"/>
<path d="M728.428 459.756C720.243 450.496 716.495 445.034 711.553 441.051C707.957 438.143 701.502 434.563 698.628 435.975C694.695 437.908 690.577 444.446 690.863 448.714C691.199 453.622 695.704 461.605 699.418 462.244C707.419 463.605 716.075 461.101 728.428 459.739V459.756ZM717.823 384.43C715.722 384.43 713.621 384.396 711.537 384.396C708.78 389.136 703.654 394.009 703.923 398.564C704.175 402.883 710.074 406.866 713.503 411.001C717.772 406.312 723.655 402.228 725.655 396.715C726.664 393.942 720.646 388.615 717.823 384.447V384.43Z" fill="white"/>
<path d="M728.428 459.756C716.075 461.117 707.419 463.605 699.418 462.26C695.704 461.638 691.216 453.655 690.863 448.731C690.561 444.462 694.678 437.925 698.628 435.992C701.502 434.58 707.957 438.16 711.553 441.067C716.495 445.05 720.243 450.496 728.428 459.773V459.756Z" fill="#A4292A"/>
<path d="M714.411 408.631C721.697 408.631 727.605 402.724 727.605 395.438C727.605 388.152 721.697 382.245 714.411 382.245C707.124 382.245 701.217 388.152 701.217 395.438C701.217 402.724 707.124 408.631 714.411 408.631Z" fill="#A4292A"/>
<path d="M692.83 420.58C690.729 416.715 688.359 413.135 686.762 409.236C682.342 398.413 683.384 388.077 690.947 378.917C695.721 373.153 702.242 370.43 709.587 369.556C715.352 368.867 721.016 369.254 726.227 372.01C735.42 376.867 739.958 384.682 739.841 395.018C739.723 404.749 735.437 412.446 727.588 418.177C725.773 419.505 723.89 420.748 721.974 422.076C727.638 428.513 733.235 434.866 739.101 441.538C740.328 438.311 741.69 435.42 742.513 432.395C743.337 429.37 743.623 426.194 744.16 422.95H761.338C761.203 434.933 759.388 446.429 752.094 456.613C757.405 462.748 762.716 468.882 768.263 475.285C767.489 475.336 767.069 475.386 766.649 475.386C758.296 475.386 749.959 475.386 741.606 475.403C740.732 475.403 740.16 475.134 739.606 474.479C738.21 472.815 736.748 471.201 735.336 469.605C732.782 470.832 730.344 472.159 727.79 473.201C716.512 477.756 704.982 478.344 693.569 474.109C675.972 467.554 672.543 450.479 676.375 438.798C677.854 434.278 680.896 430.799 684.291 427.656C686.577 425.538 689.082 423.639 691.485 421.639C691.989 421.236 692.51 420.849 692.796 420.631L692.83 420.58ZM704.141 434.429C703.872 434.63 703.738 434.698 703.671 434.782C700.813 438.782 699.654 443.219 700.46 448.092C701.217 452.647 704.965 456.815 709.049 457.386C713.772 458.059 718.361 457.101 723.05 455.554C716.68 448.445 710.444 441.454 704.141 434.429ZM710.898 409.303C713.453 407.555 715.739 406.144 717.84 404.497C720.63 402.295 721.756 399.287 721.537 395.74C721.319 392.329 718.63 389.136 715.503 388.598C711.469 387.909 708.125 389.589 706.646 393.135C705.419 396.093 705.435 399.135 706.78 401.992C707.906 404.413 709.402 406.665 710.898 409.286V409.303Z" fill="white"/>
</g>
<defs>
<clipPath id="clip0_1_145">
<rect width="1911" height="900" fill="white"/>
</clipPath>
</defs>
</svg>
